{"title":"El barco 03x15","uid":8135557,"size":745200420,"categoryP":"video","categoryS":"tv_shows","magnet":"?xt=urn:btih:48872e7a6e3cf501051e219be8ad8a91c04f4c8f&amp;dn=El+barco+03x15&amp;tr=udp%3A%2F%2Ftracker.openbittorrent.com%3A80&amp;tr=udp%3A%2F%2Fopen.demonii.com%3A1337&amp;tr=udp%3A%2F%2Ftracker.coppersurfer.tk%3A6969&amp;tr=udp%3A%2F%2Fexodus.desync.com%3A6969","seeders":1,"leechers":0,"uploader":"MrFinch","files":1,"time":1360703466,"description":"\n   General\n       Format : AVI\n      Format/Info : Audio Video Interleave\n      File size : 711 MiB\n      Duration : 1h 26mn\n      Overall bit rate : 1 143 Kbps\n      Writing application : Lavf52.57.1\n      Writing library : Boilsoft AVI tool build 30012/release\n   Video #0\n      Format : MPEG-4 Visual\n      Codec ID : FMP4\n      Duration : 1h 26mn\n      Bit rate : 1 001 Kbps\n      Width : 720 pixels\n      Height : 416 pixels\n      Display aspect ratio : 1.731\n      Frame rate : 30.000 fps\n      Color space : YUV\n      Chroma subsampling : 4:2:0\n      Compression mode : Lossy\n      Bits/(Pixel*Frame) : 0.111\n      Stream size : 623 MiB (88%)\n   Audio #1\n      ID : 1\n      Format : MPEG Audio\n      Format version : Version 1\n      Format profile : Layer 3\n      Mode : Joint stereo\n      Mode extension : MS Stereo\n      Codec ID : 55\n      Codec ID/Hint : MP3\n      Duration : 1h 26mn\n      Bit rate mode : Constant\n      Bit rate : 128 Kbps\n      Channel(s) : 2 channels\n      Sampling rate : 44.1 KHz\n      Compression mode : Lossy\n      Stream size : 79.6 MiB (11%)\n      Alignment : Aligned on interleaves\n      Interleave, duration : 26 ms (0.78 video frame)\n      Interleave, preload duration : 522 ms\n      Writing library : LAME3.97","torrent":{"xt":"urn:btih:48872e7a6e3cf501051e219be8ad8a91c04f4c8f","amp;dn":"El+barco+03x15","amp;tr":["udp%3A%2F%2Ftracker.openbittorrent.com%3A80","udp%3A%2F%2Fopen.demonii.com%3A1337","udp%3A%2F%2Ftracker.coppersurfer.tk%3A6969","udp%3A%2F%2Fexodus.desync.com%3A6969"],"infoHash":"48872e7a6e3cf501051e219be8ad8a91c04f4c8f","infoHashBuffer":{"type":"Buffer","data":[72,135,46,122,110,60,245,1,5,30,33,155,232,173,138,145,192,79,76,143]},"announce":[],"urlList":[]}}